<svg width="5212" height="3684" xmlns="http://www.w3.org/2000/svg" xmlns:xlink="http://www.w3.org/1999/xlink" xml:space="preserve" overflow="hidden"><g transform="translate(-242 930)"><g><rect x="244" y="-929" width="5208" height="3682" fill="#FFFFFF" fill-opacity="1"/><path d="M1106.5-750.832C1106.5-773.845 1125.16-792.5 1148.17-792.5L1644.83-792.5C1667.84-792.5 1686.5-773.845 1686.5-750.832L1686.5-584.168C1686.5-561.155 1667.84-542.5 1644.83-542.5L1148.17-542.5C1125.16-542.5 1106.5-561.155 1106.5-584.168Z" stroke="#042433" stroke-width="6.875" stroke-linecap="butt" stroke-linejoin="miter" stroke-miterlimit="8" stroke-opacity="1" fill="#4EA72E" fill-rule="evenodd" fill-opacity="1"/><text fill="#FFFFFF" fill-opacity="1" font-family="Lexend Medium,Lexend Medium_MSFontService,sans-serif" font-style="normal" font-variant="normal" font-weight="500" font-stretch="normal" font-size="83" text-anchor="start" direction="ltr" writing-mode="lr-tb" unicode-bidi="normal" text-decoration="none" transform="matrix(1 0 0 1 1252.36 -688)">Trainer </text><text fill="#FFFFFF" fill-opacity="1" font-family="Lexend Medium,Lexend Medium_MSFontService,sans-serif" font-style="normal" font-variant="normal" font-weight="500" font-stretch="normal" font-size="83" text-anchor="start" direction="ltr" writing-mode="lr-tb" unicode-bidi="normal" text-decoration="none" transform="matrix(1 0 0 1 1223.14 -589)">(Rank 0)</text><text fill="#FFFFFF" fill-opacity="1" font-family="Lexend Medium,Lexend Medium_MSFontService,sans-serif" font-style="normal" font-variant="normal" font-weight="500" font-stretch="normal" font-size="83" text-anchor="start" direction="ltr" writing-mode="lr-tb" unicode-bidi="normal" text-decoration="none" transform="matrix(1 0 0 1 1569.18 -589)"> </text><path d="M1973.5-772.832C1973.5-795.845 1992.16-814.5 2015.17-814.5L2511.83-814.5C2534.84-814.5 2553.5-795.845 2553.5-772.832L2553.5-606.168C2553.5-583.155 2534.84-564.5 2511.83-564.5L2015.17-564.5C1992.16-564.5 1973.5-583.155 1973.5-606.168Z" stroke="#042433" stroke-width="6.875" stroke-linecap="butt" stroke-linejoin="miter" stroke-miterlimit="8" stroke-opacity="1" fill="#4EA72E" fill-rule="evenodd" fill-opacity="1"/><text fill="#FFFFFF" fill-opacity="1" font-family="Lexend Medium,Lexend Medium_MSFontService,sans-serif" font-style="normal" font-variant="normal" font-weight="500" font-stretch="normal" font-size="73" text-anchor="start" direction="ltr" writing-mode="lr-tb" unicode-bidi="normal" text-decoration="none" transform="matrix(1 0 0 1 2064.96 -708)">API Server </text><text fill="#FFFFFF" fill-opacity="1" font-family="Lexend Medium,Lexend Medium_MSFontService,sans-serif" font-style="normal" font-variant="normal" font-weight="500" font-stretch="normal" font-size="73" text-anchor="start" direction="ltr" writing-mode="lr-tb" unicode-bidi="normal" text-decoration="none" transform="matrix(1 0 0 1 2046.92 -620)">(DP Rank 0) </text><text fill="#FFFFFF" fill-opacity="1" font-family="Lexend Medium,Lexend Medium_MSFontService,sans-serif" font-style="normal" font-variant="normal" font-weight="500" font-stretch="normal" font-size="73" text-anchor="start" direction="ltr" writing-mode="lr-tb" unicode-bidi="normal" text-decoration="none" transform="matrix(1 0 0 1 2500.67 -620)"> </text><path d="M3266.5-772.832C3266.5-795.845 3285.16-814.5 3308.17-814.5L3930.83-814.5C3953.84-814.5 3972.5-795.845 3972.5-772.832L3972.5-606.167C3972.5-583.155 3953.84-564.5 3930.83-564.5L3308.17-564.5C3285.16-564.5 3266.5-583.155 3266.5-606.167Z" stroke="#042433" stroke-width="6.875" stroke-linecap="butt" stroke-linejoin="miter" stroke-miterlimit="8" stroke-opacity="1" fill="#4EA72E" fill-rule="evenodd" fill-opacity="1"/><text fill="#FFFFFF" fill-opacity="1" font-family="Lexend Medium,Lexend Medium_MSFontService,sans-serif" font-style="normal" font-variant="normal" font-weight="500" font-stretch="normal" font-size="73" text-anchor="start" direction="ltr" writing-mode="lr-tb" unicode-bidi="normal" text-decoration="none" transform="matrix(1 0 0 1 3349.56 -664)">DPCoordinator</text><text fill="#FFFFFF" fill-opacity="1" font-family="Lexend Medium,Lexend Medium_MSFontService,sans-serif" font-style="normal" font-variant="normal" font-weight="500" font-stretch="normal" font-size="73" text-anchor="start" direction="ltr" writing-mode="lr-tb" unicode-bidi="normal" text-decoration="none" transform="matrix(1 0 0 1 3888.11 -664)"> </text><path d="M0 0 2.52913 3217.05" stroke="#000000" stroke-width="13.75" stroke-linecap="butt" stroke-linejoin="miter" stroke-miterlimit="8" stroke-opacity="1" fill="none" fill-rule="evenodd" transform="matrix(-1 0 0 1 1368.53 -543)"/><path d="M0 0 1.82828 3219.55" stroke="#000000" stroke-width="13.75" stroke-linecap="butt" stroke-linejoin="miter" stroke-miterlimit="8" stroke-opacity="1" fill="none" fill-rule="evenodd" transform="matrix(-1 0 0 1 2262.83 -559)"/><path d="M0 0 2.14911 3227.03" stroke="#000000" stroke-width="13.75" stroke-linecap="butt" stroke-linejoin="miter" stroke-miterlimit="8" stroke-opacity="1" fill="none" fill-rule="evenodd" transform="matrix(-1 0 0 1 3597.15 -566)"/><path d="M4321-566 4321 2661.03" stroke="#000000" stroke-width="13.75" stroke-linecap="butt" stroke-linejoin="miter" stroke-miterlimit="8" stroke-opacity="1" fill="none" fill-rule="evenodd"/><path d="M701-312.875 2211.62-312.875 2211.62-299.125 701-299.125ZM2204.74-326.625 2245.99-306 2204.74-285.375Z" fill="#000000" fill-rule="nonzero" fill-opacity="1"/><text fill="#000000" fill-opacity="1" font-family="Lexend Medium,Lexend Medium_MSFontService,sans-serif" font-style="normal" font-variant="normal" font-weight="500" font-stretch="normal" font-size="64" text-anchor="start" direction="ltr" writing-mode="lr-tb" unicode-bidi="normal" text-decoration="none" transform="matrix(1 0 0 1 834.112 -371)">/generate</text><text fill="#000000" fill-opacity="1" font-family="Lexend Medium,Lexend Medium_MSFontService,sans-serif" font-style="normal" font-variant="normal" font-weight="500" font-stretch="normal" font-size="64" text-anchor="start" direction="ltr" writing-mode="lr-tb" unicode-bidi="normal" text-decoration="none" transform="matrix(1 0 0 1 1153.23 -371)"> </text><path d="M2266-192.875 3574.94-192.875 3574.94-179.125 2266-179.125ZM3568.07-206.625 3609.32-186 3568.07-165.375Z" fill="#000000" fill-rule="nonzero" fill-opacity="1"/><text fill="#000000" fill-opacity="1" font-family="Lexend Medium,Lexend Medium_MSFontService,sans-serif" font-style="normal" font-variant="normal" font-weight="500" font-stretch="normal" font-size="64" text-anchor="start" direction="ltr" writing-mode="lr-tb" unicode-bidi="normal" text-decoration="none" transform="matrix(1 0 0 1 2980.19 -241)">FIRST_REQ</text><text fill="#000000" fill-opacity="1" font-family="Lexend Medium,Lexend Medium_MSFontService,sans-serif" font-style="normal" font-variant="normal" font-weight="500" font-stretch="normal" font-size="64" text-anchor="start" direction="ltr" writing-mode="lr-tb" unicode-bidi="normal" text-decoration="none" transform="matrix(1 0 0 1 3355.45 -241)"> </text><path d="M701-51.875 4287.09-51.8747 4287.09-38.1247 701-38.125ZM4280.21-65.6247 4321.46-44.9997 4280.21-24.3747Z" fill="#000000" fill-rule="nonzero" fill-opacity="1"/><path d="M701 140.125 2231.58 140.125 2231.58 153.875 701 153.875ZM2224.7 126.375 2265.95 147.001 2224.7 167.625Z" fill="#000000" fill-rule="nonzero" fill-opacity="1"/><text fill="#000000" fill-opacity="1" font-family="Lexend Medium,Lexend Medium_MSFontService,sans-serif" font-style="normal" font-variant="normal" font-weight="500" font-stretch="normal" font-size="64" text-anchor="start" direction="ltr" writing-mode="lr-tb" unicode-bidi="normal" text-decoration="none" transform="matrix(1 0 0 1 889.611 -108)">/pause</text><text fill="#000000" fill-opacity="1" font-family="Lexend Medium,Lexend Medium_MSFontService,sans-serif" font-style="normal" font-variant="normal" font-weight="500" font-stretch="normal" font-size="64" text-anchor="start" direction="ltr" writing-mode="lr-tb" unicode-bidi="normal" text-decoration="none" transform="matrix(1 0 0 1 1116.49 -108)"> </text><text fill="#000000" fill-opacity="1" font-family="Lexend Medium,Lexend Medium_MSFontService,sans-serif" font-style="normal" font-variant="normal" font-weight="500" font-stretch="normal" font-size="64" text-anchor="start" direction="ltr" writing-mode="lr-tb" unicode-bidi="normal" text-decoration="none" transform="matrix(1 0 0 1 882.175 84)">/pause</text><text fill="#000000" fill-opacity="1" font-family="Lexend Medium,Lexend Medium_MSFontService,sans-serif" font-style="normal" font-variant="normal" font-weight="500" font-stretch="normal" font-size="64" text-anchor="start" direction="ltr" writing-mode="lr-tb" unicode-bidi="normal" text-decoration="none" transform="matrix(1 0 0 1 1109.05 84)"> </text><path d="M2619.5-766.832C2619.5-789.845 2638.16-808.5 2661.17-808.5L3157.83-808.5C3180.84-808.5 3199.5-789.845 3199.5-766.832L3199.5-600.168C3199.5-577.155 3180.84-558.5 3157.83-558.5L2661.17-558.5C2638.16-558.5 2619.5-577.155 2619.5-600.168Z" stroke="#042433" stroke-width="6.875" stroke-linecap="butt" stroke-linejoin="miter" stroke-miterlimit="8" stroke-opacity="1" fill="#4EA72E" fill-rule="evenodd" fill-opacity="1"/><text fill="#FFFFFF" fill-opacity="1" font-family="Lexend Medium,Lexend Medium_MSFontService,sans-serif" font-style="normal" font-variant="normal" font-weight="500" font-stretch="normal" font-size="73" text-anchor="start" direction="ltr" writing-mode="lr-tb" unicode-bidi="normal" text-decoration="none" transform="matrix(1 0 0 1 2701.03 -702)">EngineCore </text><text fill="#FFFFFF" fill-opacity="1" font-family="Lexend Medium,Lexend Medium_MSFontService,sans-serif" font-style="normal" font-variant="normal" font-weight="500" font-stretch="normal" font-size="73" text-anchor="start" direction="ltr" writing-mode="lr-tb" unicode-bidi="normal" text-decoration="none" transform="matrix(1 0 0 1 2693.31 -614)">(DP Rank 0)</text><text fill="#FFFFFF" fill-opacity="1" font-family="Lexend Medium,Lexend Medium_MSFontService,sans-serif" font-style="normal" font-variant="normal" font-weight="500" font-stretch="normal" font-size="73" text-anchor="start" direction="ltr" writing-mode="lr-tb" unicode-bidi="normal" text-decoration="none" transform="matrix(1 0 0 1 3125.29 -614)"> </text><path d="M4038.5-772.832C4038.5-795.845 4057.16-814.5 4080.17-814.5L4576.83-814.5C4599.84-814.5 4618.5-795.845 4618.5-772.832L4618.5-606.168C4618.5-583.155 4599.84-564.5 4576.83-564.5L4080.17-564.5C4057.16-564.5 4038.5-583.155 4038.5-606.168Z" stroke="#042433" stroke-width="6.875" stroke-linecap="butt" stroke-linejoin="miter" stroke-miterlimit="8" stroke-opacity="1" fill="#4EA72E" fill-rule="evenodd" fill-opacity="1"/><text fill="#FFFFFF" fill-opacity="1" font-family="Lexend Medium,Lexend Medium_MSFontService,sans-serif" font-style="normal" font-variant="normal" font-weight="500" font-stretch="normal" font-size="73" text-anchor="start" direction="ltr" writing-mode="lr-tb" unicode-bidi="normal" text-decoration="none" transform="matrix(1 0 0 1 4130.42 -708)">API Server </text><text fill="#FFFFFF" fill-opacity="1" font-family="Lexend Medium,Lexend Medium_MSFontService,sans-serif" font-style="normal" font-variant="normal" font-weight="500" font-stretch="normal" font-size="73" text-anchor="start" direction="ltr" writing-mode="lr-tb" unicode-bidi="normal" text-decoration="none" transform="matrix(1 0 0 1 4116.4 -620)">(DP Rank 1) </text><text fill="#FFFFFF" fill-opacity="1" font-family="Lexend Medium,Lexend Medium_MSFontService,sans-serif" font-style="normal" font-variant="normal" font-weight="500" font-stretch="normal" font-size="73" text-anchor="start" direction="ltr" writing-mode="lr-tb" unicode-bidi="normal" text-decoration="none" transform="matrix(1 0 0 1 4562.12 -620)"> </text><path d="M4685.5-766.832C4685.5-789.845 4704.16-808.5 4727.17-808.5L5223.83-808.5C5246.84-808.5 5265.5-789.845 5265.5-766.832L5265.5-600.168C5265.5-577.155 5246.84-558.5 5223.83-558.5L4727.17-558.5C4704.16-558.5 4685.5-577.155 4685.5-600.168Z" stroke="#042433" stroke-width="6.875" stroke-linecap="butt" stroke-linejoin="miter" stroke-miterlimit="8" stroke-opacity="1" fill="#4EA72E" fill-rule="evenodd" fill-opacity="1"/><text fill="#FFFFFF" fill-opacity="1" font-family="Lexend Medium,Lexend Medium_MSFontService,sans-serif" font-style="normal" font-variant="normal" font-weight="500" font-stretch="normal" font-size="73" text-anchor="start" direction="ltr" writing-mode="lr-tb" unicode-bidi="normal" text-decoration="none" transform="matrix(1 0 0 1 4766.5 -702)">EngineCore </text><text fill="#FFFFFF" fill-opacity="1" font-family="Lexend Medium,Lexend Medium_MSFontService,sans-serif" font-style="normal" font-variant="normal" font-weight="500" font-stretch="normal" font-size="73" text-anchor="start" direction="ltr" writing-mode="lr-tb" unicode-bidi="normal" text-decoration="none" transform="matrix(1 0 0 1 4762.78 -614)">(DP Rank 1)</text><text fill="#FFFFFF" fill-opacity="1" font-family="Lexend Medium,Lexend Medium_MSFontService,sans-serif" font-style="normal" font-variant="normal" font-weight="500" font-stretch="normal" font-size="73" text-anchor="start" direction="ltr" writing-mode="lr-tb" unicode-bidi="normal" text-decoration="none" transform="matrix(1 0 0 1 5186.74 -614)"> </text><path d="M2907-559 2907 2660.55" stroke="#000000" stroke-width="13.75" stroke-linecap="butt" stroke-linejoin="miter" stroke-miterlimit="8" stroke-opacity="1" fill="none" fill-rule="evenodd"/><path d="M4993-566 4993 2661.03" stroke="#000000" stroke-width="13.75" stroke-linecap="butt" stroke-linejoin="miter" stroke-miterlimit="8" stroke-opacity="1" fill="none" fill-rule="evenodd"/><path d="M3609 447.125 4968.11 447.125 4968.11 460.875 3609 460.875ZM4961.24 433.375 5002.49 454 4961.24 474.625Z" fill="#000000" fill-rule="nonzero" fill-opacity="1"/><text fill="#000000" fill-opacity="1" font-family="Lexend Medium,Lexend Medium_MSFontService,sans-serif" font-style="normal" font-variant="normal" font-weight="500" font-stretch="normal" font-size="64" text-anchor="start" direction="ltr" writing-mode="lr-tb" unicode-bidi="normal" text-decoration="none" transform="matrix(1 0 0 1 3643.18 409)">START_DP_WAVE</text><text fill="#000000" fill-opacity="1" font-family="Lexend Medium,Lexend Medium_MSFontService,sans-serif" font-style="normal" font-variant="normal" font-weight="500" font-stretch="normal" font-size="64" text-anchor="start" direction="ltr" writing-mode="lr-tb" unicode-bidi="normal" text-decoration="none" transform="matrix(1 0 0 1 4211.52 409)"> </text><path d="M1374.01 1862.12 4287.5 1865.09 4287.49 1878.84 1373.99 1875.88ZM4280.64 1851.33 4321.87 1872 4280.6 1892.58Z" fill="#000000" fill-rule="nonzero" fill-opacity="1"/><text fill="#000000" fill-opacity="1" font-family="Lexend Medium,Lexend Medium_MSFontService,sans-serif" font-style="normal" font-variant="normal" font-weight="500" font-stretch="normal" font-size="64" text-anchor="start" direction="ltr" writing-mode="lr-tb" unicode-bidi="normal" text-decoration="none" transform="matrix(1 0 0 1 1498.68 1822)">/update_weights</text><text fill="#000000" fill-opacity="1" font-family="Lexend Medium,Lexend Medium_MSFontService,sans-serif" font-style="normal" font-variant="normal" font-weight="500" font-stretch="normal" font-size="64" text-anchor="start" direction="ltr" writing-mode="lr-tb" unicode-bidi="normal" text-decoration="none" transform="matrix(1 0 0 1 2050.97 1822)"> </text><path d="M4325 2018.12 4963.08 2018.13 4963.08 2031.88 4325 2031.88ZM4956.21 2004.38 4997.46 2025 4956.21 2045.63Z" fill="#000000" fill-rule="nonzero" fill-opacity="1"/><text fill="#000000" fill-opacity="1" font-family="Lexend Medium,Lexend Medium_MSFontService,sans-serif" font-style="normal" font-variant="normal" font-weight="500" font-stretch="normal" font-size="64" text-anchor="start" direction="ltr" writing-mode="lr-tb" unicode-bidi="normal" text-decoration="none" transform="matrix(1 0 0 1 4420.17 1969)">collective_rpc</text><text fill="#000000" fill-opacity="1" font-family="Lexend Medium,Lexend Medium_MSFontService,sans-serif" font-style="normal" font-variant="normal" font-weight="500" font-stretch="normal" font-size="64" text-anchor="start" direction="ltr" writing-mode="lr-tb" unicode-bidi="normal" text-decoration="none" transform="matrix(1 0 0 1 4865.9 1969)"> </text><path d="M4563.5 2440.5 4603 2282.5 5334.5 2282.5 5295 2440.5Z" stroke="#042433" stroke-width="6.875" stroke-linecap="butt" stroke-linejoin="miter" stroke-miterlimit="8" stroke-opacity="1" fill="#156082" fill-rule="evenodd" fill-opacity="1"/><text fill="#FFFFFF" fill-opacity="1" font-family="Aptos,Aptos_MSFontService,sans-serif" font-style="normal" font-variant="normal" font-weight="400" font-stretch="normal" font-size="64" text-anchor="start" direction="ltr" writing-mode="lr-tb" unicode-bidi="normal" text-decoration="none" transform="matrix(1 0 0 1 4716.66 2343)">NCCL Broadcast </text><text fill="#FFFFFF" fill-opacity="1" font-family="Aptos,Aptos_MSFontService,sans-serif" font-style="normal" font-variant="normal" font-weight="400" font-stretch="normal" font-size="64" text-anchor="start" direction="ltr" writing-mode="lr-tb" unicode-bidi="normal" text-decoration="none" transform="matrix(1 0 0 1 4820.57 2420)">(Receive)</text><path d="M1004.5 2426.5 1044 2268.5 1775.5 2268.5 1736 2426.5Z" stroke="#042433" stroke-width="6.875" stroke-linecap="butt" stroke-linejoin="miter" stroke-miterlimit="8" stroke-opacity="1" fill="#156082" fill-rule="evenodd" fill-opacity="1"/><text fill="#FFFFFF" fill-opacity="1" font-family="Aptos,Aptos_MSFontService,sans-serif" font-style="normal" font-variant="normal" font-weight="400" font-stretch="normal" font-size="64" text-anchor="start" direction="ltr" writing-mode="lr-tb" unicode-bidi="normal" text-decoration="none" transform="matrix(1 0 0 1 1157.27 2329)">NCCL Broadcast </text><text fill="#FFFFFF" fill-opacity="1" font-family="Aptos,Aptos_MSFontService,sans-serif" font-style="normal" font-variant="normal" font-weight="400" font-stretch="normal" font-size="64" text-anchor="start" direction="ltr" writing-mode="lr-tb" unicode-bidi="normal" text-decoration="none" transform="matrix(1 0 0 1 1299.54 2406)">(Send)</text><path d="M2484.5 539.5 2524.25 380.5 3302.5 380.5 3262.75 539.5Z" stroke="#042433" stroke-width="6.875" stroke-linecap="butt" stroke-linejoin="miter" stroke-miterlimit="8" stroke-opacity="1" fill="#156082" fill-rule="evenodd" fill-opacity="1"/><text fill="#FFFFFF" fill-opacity="1" font-family="Aptos,Aptos_MSFontService,sans-serif" font-style="normal" font-variant="normal" font-weight="400" font-stretch="normal" font-size="64" text-anchor="start" direction="ltr" writing-mode="lr-tb" unicode-bidi="normal" text-decoration="none" transform="matrix(1 0 0 1 2642.14 441)">All</text><text fill="#FFFFFF" fill-opacity="1" font-family="Aptos,Aptos_MSFontService,sans-serif" font-style="normal" font-variant="normal" font-weight="400" font-stretch="normal" font-size="64" text-anchor="start" direction="ltr" writing-mode="lr-tb" unicode-bidi="normal" text-decoration="none" transform="matrix(1 0 0 1 2713.18 441)">-</text><text fill="#FFFFFF" fill-opacity="1" font-family="Aptos,Aptos_MSFontService,sans-serif" font-style="normal" font-variant="normal" font-weight="400" font-stretch="normal" font-size="64" text-anchor="start" direction="ltr" writing-mode="lr-tb" unicode-bidi="normal" text-decoration="none" transform="matrix(1 0 0 1 2734.95 441)">to</text><text fill="#FFFFFF" fill-opacity="1" font-family="Aptos,Aptos_MSFontService,sans-serif" font-style="normal" font-variant="normal" font-weight="400" font-stretch="normal" font-size="64" text-anchor="start" direction="ltr" writing-mode="lr-tb" unicode-bidi="normal" text-decoration="none" transform="matrix(1 0 0 1 2790.78 441)">-</text><text fill="#FFFFFF" fill-opacity="1" font-family="Aptos,Aptos_MSFontService,sans-serif" font-style="normal" font-variant="normal" font-weight="400" font-stretch="normal" font-size="64" text-anchor="start" direction="ltr" writing-mode="lr-tb" unicode-bidi="normal" text-decoration="none" transform="matrix(1 0 0 1 2812.55 441)">All (Forward </text><text fill="#FFFFFF" fill-opacity="1" font-family="Aptos,Aptos_MSFontService,sans-serif" font-style="normal" font-variant="normal" font-weight="400" font-stretch="normal" font-size="64" text-anchor="start" direction="ltr" writing-mode="lr-tb" unicode-bidi="normal" text-decoration="none" transform="matrix(1 0 0 1 2817.08 518)">pass)</text><path d="M0.042925-6.87487 855.159-1.53573 855.073 12.214-0.042925 6.87487ZM848.371-15.3284 889.492 5.55377 848.114 25.9208Z" fill="#000000" fill-rule="nonzero" fill-opacity="1" transform="matrix(1 0 0 -1 1377 2037.55)"/><text fill="#000000" fill-opacity="1" font-family="Lexend Medium,Lexend Medium_MSFontService,sans-serif" font-style="normal" font-variant="normal" font-weight="500" font-stretch="normal" font-size="64" text-anchor="start" direction="ltr" writing-mode="lr-tb" unicode-bidi="normal" text-decoration="none" transform="matrix(1 0 0 1 1475.31 1987)">/update_weights</text><text fill="#000000" fill-opacity="1" font-family="Lexend Medium,Lexend Medium_MSFontService,sans-serif" font-style="normal" font-variant="normal" font-weight="500" font-stretch="normal" font-size="64" text-anchor="start" direction="ltr" writing-mode="lr-tb" unicode-bidi="normal" text-decoration="none" transform="matrix(1 0 0 1 2027.6 1987)"> </text><path d="M2263 201.125 2702.97 201.125 2702.97 214.875 2263 214.875ZM2696.1 187.375 2737.35 208 2696.1 228.625Z" fill="#000000" fill-rule="nonzero" fill-opacity="1"/><path d="M2743.5 155.834C2743.5 141.29 2755.29 129.5 2769.83 129.5L3088.17 129.5C3102.71 129.5 3114.5 141.29 3114.5 155.834L3114.5 261.166C3114.5 275.71 3102.71 287.5 3088.17 287.5L2769.83 287.5C2755.29 287.5 2743.5 275.71 2743.5 261.166Z" stroke="#042433" stroke-width="6.875" stroke-linecap="butt" stroke-linejoin="miter" stroke-miterlimit="8" stroke-dasharray="6.875 6.875" stroke-opacity="1" fill="#83CBEB" fill-rule="evenodd" fill-opacity="1"/><text fill="#000000" fill-opacity="1" font-family="Lexend Medium,Lexend Medium_MSFontService,sans-serif" font-style="normal" font-variant="normal" font-weight="500" font-stretch="normal" font-size="64" text-anchor="start" direction="ltr" writing-mode="lr-tb" unicode-bidi="normal" text-decoration="none" transform="matrix(1 0 0 1 2805.48 231)">Queued</text><text fill="#000000" fill-opacity="1" font-family="Lexend Medium,Lexend Medium_MSFontService,sans-serif" font-style="normal" font-variant="normal" font-weight="500" font-stretch="normal" font-size="64" text-anchor="start" direction="ltr" writing-mode="lr-tb" unicode-bidi="normal" text-decoration="none" transform="matrix(1 0 0 1 3052.41 231)"> </text><text fill="#000000" fill-opacity="1" font-family="Lexend Medium,Lexend Medium_MSFontService,sans-serif" font-style="normal" font-variant="normal" font-weight="500" font-stretch="normal" font-size="64" text-anchor="start" direction="ltr" writing-mode="lr-tb" unicode-bidi="normal" text-decoration="none" transform="matrix(1 0 0 1 2400.75 157)">pause</text><text fill="#000000" fill-opacity="1" font-family="Lexend Medium,Lexend Medium_MSFontService,sans-serif" font-style="normal" font-variant="normal" font-weight="500" font-stretch="normal" font-size="64" text-anchor="start" direction="ltr" writing-mode="lr-tb" unicode-bidi="normal" text-decoration="none" transform="matrix(1 0 0 1 2590.95 157)"> </text><path d="M4321 42.1252 4962.41 42.1255 4962.41 55.8755 4321 55.8752ZM4955.54 28.3755 4996.79 49.0005 4955.54 69.6255Z" fill="#000000" fill-rule="nonzero" fill-opacity="1"/><text fill="#000000" fill-opacity="1" font-family="Lexend Medium,Lexend Medium_MSFontService,sans-serif" font-style="normal" font-variant="normal" font-weight="500" font-stretch="normal" font-size="64" text-anchor="start" direction="ltr" writing-mode="lr-tb" unicode-bidi="normal" text-decoration="none" transform="matrix(1 0 0 1 4490.37 -4)">pause</text><path d="M4803.5 130.834C4803.5 116.29 4815.29 104.5 4829.83 104.5L5142.17 104.5C5156.71 104.5 5168.5 116.29 5168.5 130.834L5168.5 236.166C5168.5 250.71 5156.71 262.5 5142.17 262.5L4829.83 262.5C4815.29 262.5 4803.5 250.71 4803.5 236.166Z" stroke="#042433" stroke-width="6.875" stroke-linecap="butt" stroke-linejoin="miter" stroke-miterlimit="8" stroke-dasharray="6.875 6.875" stroke-opacity="1" fill="#83CBEB" fill-rule="evenodd" fill-opacity="1"/><text fill="#000000" fill-opacity="1" font-family="Lexend Medium,Lexend Medium_MSFontService,sans-serif" font-style="normal" font-variant="normal" font-weight="500" font-stretch="normal" font-size="64" text-anchor="start" direction="ltr" writing-mode="lr-tb" unicode-bidi="normal" text-decoration="none" transform="matrix(1 0 0 1 4900.41 168)">Local </text><text fill="#000000" fill-opacity="1" font-family="Lexend Medium,Lexend Medium_MSFontService,sans-serif" font-style="normal" font-variant="normal" font-weight="500" font-stretch="normal" font-size="64" text-anchor="start" direction="ltr" writing-mode="lr-tb" unicode-bidi="normal" text-decoration="none" transform="matrix(1 0 0 1 4890.67 245)">Pause</text><text fill="#000000" fill-opacity="1" font-family="Lexend Medium,Lexend Medium_MSFontService,sans-serif" font-style="normal" font-variant="normal" font-weight="500" font-stretch="normal" font-size="64" text-anchor="start" direction="ltr" writing-mode="lr-tb" unicode-bidi="normal" text-decoration="none" transform="matrix(1 0 0 1 5080.31 245)"> </text><path d="M4533.5 687.499 4573.25 528.5 5351.5 528.5 5311.75 687.499Z" stroke="#042433" stroke-width="6.875" stroke-linecap="butt" stroke-linejoin="miter" stroke-miterlimit="8" stroke-opacity="1" fill="#156082" fill-rule="evenodd" fill-opacity="1"/><text fill="#FFFFFF" fill-opacity="1" font-family="Aptos,Aptos_MSFontService,sans-serif" font-style="normal" font-variant="normal" font-weight="400" font-stretch="normal" font-size="64" text-anchor="start" direction="ltr" writing-mode="lr-tb" unicode-bidi="normal" text-decoration="none" transform="matrix(1 0 0 1 4691.75 590)">All</text><text fill="#FFFFFF" fill-opacity="1" font-family="Aptos,Aptos_MSFontService,sans-serif" font-style="normal" font-variant="normal" font-weight="400" font-stretch="normal" font-size="64" text-anchor="start" direction="ltr" writing-mode="lr-tb" unicode-bidi="normal" text-decoration="none" transform="matrix(1 0 0 1 4762.8 590)">-</text><text fill="#FFFFFF" fill-opacity="1" font-family="Aptos,Aptos_MSFontService,sans-serif" font-style="normal" font-variant="normal" font-weight="400" font-stretch="normal" font-size="64" text-anchor="start" direction="ltr" writing-mode="lr-tb" unicode-bidi="normal" text-decoration="none" transform="matrix(1 0 0 1 4784.57 590)">to</text><text fill="#FFFFFF" fill-opacity="1" font-family="Aptos,Aptos_MSFontService,sans-serif" font-style="normal" font-variant="normal" font-weight="400" font-stretch="normal" font-size="64" text-anchor="start" direction="ltr" writing-mode="lr-tb" unicode-bidi="normal" text-decoration="none" transform="matrix(1 0 0 1 4840.39 590)">-</text><text fill="#FFFFFF" fill-opacity="1" font-family="Aptos,Aptos_MSFontService,sans-serif" font-style="normal" font-variant="normal" font-weight="400" font-stretch="normal" font-size="64" text-anchor="start" direction="ltr" writing-mode="lr-tb" unicode-bidi="normal" text-decoration="none" transform="matrix(1 0 0 1 4862.16 590)">All (Forward </text><text fill="#FFFFFF" fill-opacity="1" font-family="Aptos,Aptos_MSFontService,sans-serif" font-style="normal" font-variant="normal" font-weight="400" font-stretch="normal" font-size="64" text-anchor="start" direction="ltr" writing-mode="lr-tb" unicode-bidi="normal" text-decoration="none" transform="matrix(1 0 0 1 4866.7 667)">pass)</text><path d="M2706.5 737.834C2706.5 723.29 2718.29 711.5 2732.83 711.5L3045.17 711.5C3059.71 711.5 3071.5 723.29 3071.5 737.834L3071.5 843.166C3071.5 857.71 3059.71 869.5 3045.17 869.5L2732.83 869.5C2718.29 869.5 2706.5 857.71 2706.5 843.166Z" stroke="#042433" stroke-width="6.875" stroke-linecap="butt" stroke-linejoin="miter" stroke-miterlimit="8" stroke-dasharray="6.875 6.875" stroke-opacity="1" fill="#83CBEB" fill-rule="evenodd" fill-opacity="1"/><text fill="#000000" fill-opacity="1" font-family="Lexend Medium,Lexend Medium_MSFontService,sans-serif" font-style="normal" font-variant="normal" font-weight="500" font-stretch="normal" font-size="64" text-anchor="start" direction="ltr" writing-mode="lr-tb" unicode-bidi="normal" text-decoration="none" transform="matrix(1 0 0 1 2816.58 775)">Step </text><text fill="#000000" fill-opacity="1" font-family="Lexend Medium,Lexend Medium_MSFontService,sans-serif" font-style="normal" font-variant="normal" font-weight="500" font-stretch="normal" font-size="64" text-anchor="start" direction="ltr" writing-mode="lr-tb" unicode-bidi="normal" text-decoration="none" transform="matrix(1 0 0 1 2756.15 852)">Finished</text><text fill="#000000" fill-opacity="1" font-family="Lexend Medium,Lexend Medium_MSFontService,sans-serif" font-style="normal" font-variant="normal" font-weight="500" font-stretch="normal" font-size="64" text-anchor="start" direction="ltr" writing-mode="lr-tb" unicode-bidi="normal" text-decoration="none" transform="matrix(1 0 0 1 3020.84 852)"> </text><path d="M4829.5 763.834C4829.5 749.29 4841.29 737.5 4855.83 737.5L5168.17 737.5C5182.71 737.5 5194.5 749.29 5194.5 763.834L5194.5 869.166C5194.5 883.71 5182.71 895.5 5168.17 895.5L4855.83 895.5C4841.29 895.5 4829.5 883.71 4829.5 869.166Z" stroke="#042433" stroke-width="6.875" stroke-linecap="butt" stroke-linejoin="miter" stroke-miterlimit="8" stroke-dasharray="6.875 6.875" stroke-opacity="1" fill="#83CBEB" fill-rule="evenodd" fill-opacity="1"/><text fill="#000000" fill-opacity="1" font-family="Lexend Medium,Lexend Medium_MSFontService,sans-serif" font-style="normal" font-variant="normal" font-weight="500" font-stretch="normal" font-size="64" text-anchor="start" direction="ltr" writing-mode="lr-tb" unicode-bidi="normal" text-decoration="none" transform="matrix(1 0 0 1 4939.44 801)">Step </text><text fill="#000000" fill-opacity="1" font-family="Lexend Medium,Lexend Medium_MSFontService,sans-serif" font-style="normal" font-variant="normal" font-weight="500" font-stretch="normal" font-size="64" text-anchor="start" direction="ltr" writing-mode="lr-tb" unicode-bidi="normal" text-decoration="none" transform="matrix(1 0 0 1 4879.01 878)">Finished</text><text fill="#000000" fill-opacity="1" font-family="Lexend Medium,Lexend Medium_MSFontService,sans-serif" font-style="normal" font-variant="normal" font-weight="500" font-stretch="normal" font-size="64" text-anchor="start" direction="ltr" writing-mode="lr-tb" unicode-bidi="normal" text-decoration="none" transform="matrix(1 0 0 1 5143.69 878)"> </text><path d="M2716.5 938.834C2716.5 924.29 2728.29 912.5 2742.83 912.5L3055.17 912.5C3069.71 912.5 3081.5 924.29 3081.5 938.834L3081.5 1044.17C3081.5 1058.71 3069.71 1070.5 3055.17 1070.5L2742.83 1070.5C2728.29 1070.5 2716.5 1058.71 2716.5 1044.17Z" stroke="#042433" stroke-width="6.875" stroke-linecap="butt" stroke-linejoin="miter" stroke-miterlimit="8" stroke-dasharray="6.875 6.875" stroke-opacity="1" fill="#83CBEB" fill-rule="evenodd" fill-opacity="1"/><text fill="#000000" fill-opacity="1" font-family="Lexend Medium,Lexend Medium_MSFontService,sans-serif" font-style="normal" font-variant="normal" font-weight="500" font-stretch="normal" font-size="64" text-anchor="start" direction="ltr" writing-mode="lr-tb" unicode-bidi="normal" text-decoration="none" transform="matrix(1 0 0 1 2813.62 976)">Local </text><text fill="#000000" fill-opacity="1" font-family="Lexend Medium,Lexend Medium_MSFontService,sans-serif" font-style="normal" font-variant="normal" font-weight="500" font-stretch="normal" font-size="64" text-anchor="start" direction="ltr" writing-mode="lr-tb" unicode-bidi="normal" text-decoration="none" transform="matrix(1 0 0 1 2803.88 1053)">Pause</text><text fill="#000000" fill-opacity="1" font-family="Lexend Medium,Lexend Medium_MSFontService,sans-serif" font-style="normal" font-variant="normal" font-weight="500" font-stretch="normal" font-size="64" text-anchor="start" direction="ltr" writing-mode="lr-tb" unicode-bidi="normal" text-decoration="none" transform="matrix(1 0 0 1 2993.52 1053)"> </text><path d="M2513.5 1322.5 2553.25 1163.5 3331.5 1163.5 3291.75 1322.5Z" stroke="#042433" stroke-width="6.875" stroke-linecap="butt" stroke-linejoin="miter" stroke-miterlimit="8" stroke-opacity="1" fill="#156082" fill-rule="evenodd" fill-opacity="1"/><text fill="#FFFFFF" fill-opacity="1" font-family="Aptos,Aptos_MSFontService,sans-serif" font-style="normal" font-variant="normal" font-weight="400" font-stretch="normal" font-size="64" text-anchor="start" direction="ltr" writing-mode="lr-tb" unicode-bidi="normal" text-decoration="none" transform="matrix(1 0 0 1 2649.8 1263)">Periodic All</text><text fill="#FFFFFF" fill-opacity="1" font-family="Aptos,Aptos_MSFontService,sans-serif" font-style="normal" font-variant="normal" font-weight="400" font-stretch="normal" font-size="64" text-anchor="start" direction="ltr" writing-mode="lr-tb" unicode-bidi="normal" text-decoration="none" transform="matrix(1 0 0 1 2960.2 1263)">-</text><text fill="#FFFFFF" fill-opacity="1" font-family="Aptos,Aptos_MSFontService,sans-serif" font-style="normal" font-variant="normal" font-weight="400" font-stretch="normal" font-size="64" text-anchor="start" direction="ltr" writing-mode="lr-tb" unicode-bidi="normal" text-decoration="none" transform="matrix(1 0 0 1 2981.98 1263)">Reduce</text><path d="M4526.5 1322.5 4566.25 1163.5 5344.5 1163.5 5304.75 1322.5Z" stroke="#042433" stroke-width="6.875" stroke-linecap="butt" stroke-linejoin="miter" stroke-miterlimit="8" stroke-opacity="1" fill="#156082" fill-rule="evenodd" fill-opacity="1"/><text fill="#FFFFFF" fill-opacity="1" font-family="Aptos,Aptos_MSFontService,sans-serif" font-style="normal" font-variant="normal" font-weight="400" font-stretch="normal" font-size="64" text-anchor="start" direction="ltr" writing-mode="lr-tb" unicode-bidi="normal" text-decoration="none" transform="matrix(1 0 0 1 4662.67 1263)">Periodic All</text><text fill="#FFFFFF" fill-opacity="1" font-family="Aptos,Aptos_MSFontService,sans-serif" font-style="normal" font-variant="normal" font-weight="400" font-stretch="normal" font-size="64" text-anchor="start" direction="ltr" writing-mode="lr-tb" unicode-bidi="normal" text-decoration="none" transform="matrix(1 0 0 1 4973.08 1263)">-</text><text fill="#FFFFFF" fill-opacity="1" font-family="Aptos,Aptos_MSFontService,sans-serif" font-style="normal" font-variant="normal" font-weight="400" font-stretch="normal" font-size="64" text-anchor="start" direction="ltr" writing-mode="lr-tb" unicode-bidi="normal" text-decoration="none" transform="matrix(1 0 0 1 4994.85 1263)">Reduce</text><path d="M34.3753-6.87499 1200.03-6.87465 1200.03 6.87535 34.3753 6.87501ZM41.25 20.625 0 0 41.25-20.625ZM1193.15-20.6247 1234.4 0.000360892 1193.15 20.6253Z" fill="#000000" fill-rule="nonzero" fill-opacity="1" transform="matrix(1 0 0 -1 3311 1242)"/><text fill="#46B1E1" fill-opacity="1" font-family="Lexend Medium,Lexend Medium_MSFontService,sans-serif" font-style="normal" font-variant="normal" font-weight="500" font-stretch="normal" font-size="62" text-anchor="start" direction="ltr" writing-mode="lr-tb" unicode-bidi="normal" text-decoration="none" transform="matrix(1 0 0 1 3629.02 1200)">are all engines paused?</text><text fill="#46B1E1" fill-opacity="1" font-family="Lexend Medium,Lexend Medium_MSFontService,sans-serif" font-style="normal" font-variant="normal" font-weight="500" font-stretch="normal" font-size="62" text-anchor="start" direction="ltr" writing-mode="lr-tb" unicode-bidi="normal" text-decoration="none" transform="matrix(1 0 0 1 4348.04 1200)"> </text><path d="M2700.5 1454.83C2700.5 1440.29 2712.29 1428.5 2726.83 1428.5L3039.17 1428.5C3053.71 1428.5 3065.5 1440.29 3065.5 1454.83L3065.5 1560.17C3065.5 1574.71 3053.71 1586.5 3039.17 1586.5L2726.83 1586.5C2712.29 1586.5 2700.5 1574.71 2700.5 1560.17Z" stroke="#042433" stroke-width="6.875" stroke-linecap="butt" stroke-linejoin="miter" stroke-miterlimit="8" stroke-dasharray="6.875 6.875" stroke-opacity="1" fill="#83CBEB" fill-rule="evenodd" fill-opacity="1"/><text fill="#000000" fill-opacity="1" font-family="Lexend Medium,Lexend Medium_MSFontService,sans-serif" font-style="normal" font-variant="normal" font-weight="500" font-stretch="normal" font-size="64" text-anchor="start" direction="ltr" writing-mode="lr-tb" unicode-bidi="normal" text-decoration="none" transform="matrix(1 0 0 1 2779.23 1492)">Global </text><text fill="#000000" fill-opacity="1" font-family="Lexend Medium,Lexend Medium_MSFontService,sans-serif" font-style="normal" font-variant="normal" font-weight="500" font-stretch="normal" font-size="64" text-anchor="start" direction="ltr" writing-mode="lr-tb" unicode-bidi="normal" text-decoration="none" transform="matrix(1 0 0 1 2787.25 1569)">Pause</text><text fill="#000000" fill-opacity="1" font-family="Lexend Medium,Lexend Medium_MSFontService,sans-serif" font-style="normal" font-variant="normal" font-weight="500" font-stretch="normal" font-size="64" text-anchor="start" direction="ltr" writing-mode="lr-tb" unicode-bidi="normal" text-decoration="none" transform="matrix(1 0 0 1 2976.89 1569)"> </text><path d="M4803.5 1459.83C4803.5 1445.29 4815.29 1433.5 4829.83 1433.5L5142.17 1433.5C5156.71 1433.5 5168.5 1445.29 5168.5 1459.83L5168.5 1565.17C5168.5 1579.71 5156.71 1591.5 5142.17 1591.5L4829.83 1591.5C4815.29 1591.5 4803.5 1579.71 4803.5 1565.17Z" stroke="#042433" stroke-width="6.875" stroke-linecap="butt" stroke-linejoin="miter" stroke-miterlimit="8" stroke-dasharray="6.875 6.875" stroke-opacity="1" fill="#83CBEB" fill-rule="evenodd" fill-opacity="1"/><text fill="#000000" fill-opacity="1" font-family="Lexend Medium,Lexend Medium_MSFontService,sans-serif" font-style="normal" font-variant="normal" font-weight="500" font-stretch="normal" font-size="64" text-anchor="start" direction="ltr" writing-mode="lr-tb" unicode-bidi="normal" text-decoration="none" transform="matrix(1 0 0 1 4882.65 1497)">Global </text><text fill="#000000" fill-opacity="1" font-family="Lexend Medium,Lexend Medium_MSFontService,sans-serif" font-style="normal" font-variant="normal" font-weight="500" font-stretch="normal" font-size="64" text-anchor="start" direction="ltr" writing-mode="lr-tb" unicode-bidi="normal" text-decoration="none" transform="matrix(1 0 0 1 4890.67 1574)">Pause</text><text fill="#000000" fill-opacity="1" font-family="Lexend Medium,Lexend Medium_MSFontService,sans-serif" font-style="normal" font-variant="normal" font-weight="500" font-stretch="normal" font-size="64" text-anchor="start" direction="ltr" writing-mode="lr-tb" unicode-bidi="normal" text-decoration="none" transform="matrix(1 0 0 1 5080.31 1574)"> </text><path d="M725.375 1665.12 4317.49 1665.13 4317.49 1678.88 725.375 1678.88ZM732.25 1692.62 691 1672 732.25 1651.38Z" fill="#92D050" fill-rule="nonzero" fill-opacity="1"/><path d="M735.375 1614.13 2254.42 1614.13 2254.42 1627.88 735.375 1627.88ZM742.25 1641.63 701 1621 742.25 1600.38Z" fill="#92D050" fill-rule="nonzero" fill-opacity="1"/><path d="M2254 2108.12 2872.39 2108.13 2872.39 2121.88 2254 2121.88ZM2865.51 2094.38 2906.76 2115 2865.51 2135.63Z" fill="#000000" fill-rule="nonzero" fill-opacity="1"/><text fill="#000000" fill-opacity="1" font-family="Lexend Medium,Lexend Medium_MSFontService,sans-serif" font-style="normal" font-variant="normal" font-weight="500" font-stretch="normal" font-size="64" text-anchor="start" direction="ltr" writing-mode="lr-tb" unicode-bidi="normal" text-decoration="none" transform="matrix(1 0 0 1 2363.21 2068)">collective_rpc</text><text fill="#000000" fill-opacity="1" font-family="Lexend Medium,Lexend Medium_MSFontService,sans-serif" font-style="normal" font-variant="normal" font-weight="500" font-stretch="normal" font-size="64" text-anchor="start" direction="ltr" writing-mode="lr-tb" unicode-bidi="normal" text-decoration="none" transform="matrix(1 0 0 1 2808.94 2068)"> </text><path d="M2519.5 2426.5 2559 2268.5 3290.5 2268.5 3251 2426.5Z" stroke="#042433" stroke-width="6.875" stroke-linecap="butt" stroke-linejoin="miter" stroke-miterlimit="8" stroke-opacity="1" fill="#156082" fill-rule="evenodd" fill-opacity="1"/><text fill="#FFFFFF" fill-opacity="1" font-family="Aptos,Aptos_MSFontService,sans-serif" font-style="normal" font-variant="normal" font-weight="400" font-stretch="normal" font-size="64" text-anchor="start" direction="ltr" writing-mode="lr-tb" unicode-bidi="normal" text-decoration="none" transform="matrix(1 0 0 1 2672.9 2329)">NCCL Broadcast </text><text fill="#FFFFFF" fill-opacity="1" font-family="Aptos,Aptos_MSFontService,sans-serif" font-style="normal" font-variant="normal" font-weight="400" font-stretch="normal" font-size="64" text-anchor="start" direction="ltr" writing-mode="lr-tb" unicode-bidi="normal" text-decoration="none" transform="matrix(1 0 0 1 2776.8 2406)">(Receive)</text><text fill="#92D050" fill-opacity="1" font-family="Lexend Medium,Lexend Medium_MSFontService,sans-serif" font-style="normal" font-variant="normal" font-weight="500" font-stretch="normal" font-size="64" text-anchor="start" direction="ltr" writing-mode="lr-tb" unicode-bidi="normal" text-decoration="none" transform="matrix(1 0 0 1 796.116 1526)">/pause returns</text><text fill="#92D050" fill-opacity="1" font-family="Lexend Medium,Lexend Medium_MSFontService,sans-serif" font-style="normal" font-variant="normal" font-weight="500" font-stretch="normal" font-size="64" text-anchor="start" direction="ltr" writing-mode="lr-tb" unicode-bidi="normal" text-decoration="none" transform="matrix(1 0 0 1 1267.05 1526)"> </text><path d="M0 5.15625-294.643 5.15625-289.487 0-289.487 783.565-294.643 778.409 7.45696 778.409 7.45696 788.721-299.799 788.721-299.799-5.15625 0-5.15625ZM2.30069 768.096 33.2382 783.565 2.30069 799.034Z" fill="#156082" fill-rule="nonzero" fill-opacity="1" transform="matrix(-1 0 0 1 3114.24 208)"/><path d="M2257-260.875 2863.35-260.875 2863.35-247.125 2257-247.125ZM2856.47-274.625 2897.72-254 2856.47-233.375Z" fill="#000000" fill-rule="nonzero" fill-opacity="1"/><text fill="#000000" fill-opacity="1" font-family="Lexend Medium,Lexend Medium_MSFontService,sans-serif" font-style="normal" font-variant="normal" font-weight="500" font-stretch="normal" font-size="64" text-anchor="start" direction="ltr" writing-mode="lr-tb" unicode-bidi="normal" text-decoration="none" transform="matrix(1 0 0 1 2372.49 -300)">add_request</text><text fill="#000000" fill-opacity="1" font-family="Lexend Medium,Lexend Medium_MSFontService,sans-serif" font-style="normal" font-variant="normal" font-weight="500" font-stretch="normal" font-size="64" text-anchor="start" direction="ltr" writing-mode="lr-tb" unicode-bidi="normal" text-decoration="none" transform="matrix(1 0 0 1 2778.69 -300)"> </text><path d="M380.5-750.832C380.5-773.845 399.155-792.5 422.168-792.5L918.832-792.5C941.845-792.5 960.5-773.845 960.5-750.832L960.5-584.168C960.5-561.155 941.845-542.5 918.832-542.5L422.168-542.5C399.155-542.5 380.5-561.155 380.5-584.168Z" stroke="#042433" stroke-width="6.875" stroke-linecap="butt" stroke-linejoin="miter" stroke-miterlimit="8" stroke-opacity="1" fill="#4EA72E" fill-rule="evenodd" fill-opacity="1"/><text fill="#FFFFFF" fill-opacity="1" font-family="Lexend Medium,Lexend Medium_MSFontService,sans-serif" font-style="normal" font-variant="normal" font-weight="500" font-stretch="normal" font-size="83" text-anchor="start" direction="ltr" writing-mode="lr-tb" unicode-bidi="normal" text-decoration="none" transform="matrix(1 0 0 1 469.16 -639)">Controller</text><text fill="#FFFFFF" fill-opacity="1" font-family="Lexend Medium,Lexend Medium_MSFontService,sans-serif" font-style="normal" font-variant="normal" font-weight="500" font-stretch="normal" font-size="83" text-anchor="start" direction="ltr" writing-mode="lr-tb" unicode-bidi="normal" text-decoration="none" transform="matrix(1 0 0 1 870.202 -639)"> </text><path d="M0 0 2.52913 3217.05" stroke="#000000" stroke-width="13.75" stroke-linecap="butt" stroke-linejoin="miter" stroke-miterlimit="8" stroke-opacity="1" fill="none" fill-rule="evenodd" transform="matrix(-1 0 0 1 696.529 -543)"/><path d="M0.0662552-6.87468 626.398-0.838369 626.265 12.911-0.0662552 6.87468ZM619.656-14.654 660.705 6.36759 619.258 26.5941Z" fill="#000000" fill-rule="nonzero" fill-opacity="1" transform="matrix(1 0 0 -1 705 1758.37)"/><text fill="#000000" fill-opacity="1" font-family="Lexend Medium,Lexend Medium_MSFontService,sans-serif" font-style="normal" font-variant="normal" font-weight="500" font-stretch="normal" font-size="64" text-anchor="start" direction="ltr" writing-mode="lr-tb" unicode-bidi="normal" text-decoration="none" transform="matrix(1 0 0 1 795.472 1849)">send_weights</text><text fill="#000000" fill-opacity="1" font-family="Lexend Medium,Lexend Medium_MSFontService,sans-serif" font-style="normal" font-variant="normal" font-weight="500" font-stretch="normal" font-size="64" text-anchor="start" direction="ltr" writing-mode="lr-tb" unicode-bidi="normal" text-decoration="none" transform="matrix(1 0 0 1 1234.33 1849)"> </text></g></g></svg>