<svg class="main-svg" xmlns="http://www.w3.org/2000/svg" xmlns:xlink="http://www.w3.org/1999/xlink" width="1100" height="650" style="" viewBox="0 0 1100 650"><rect x="0" y="0" width="1100" height="650" style="fill: rgb(2, 6, 23); fill-opacity: 1;"/><defs id="defs-4837f7"><g class="clips"><clipPath id="clip4837f7xyplot" class="plotclip"><rect width="964" height="460"/></clipPath><clipPath class="axesclip" id="clip4837f7x"><rect x="100" y="0" width="964" height="650"/></clipPath><clipPath class="axesclip" id="clip4837f7y"><rect x="0" y="120" width="1100" height="460"/></clipPath><clipPath class="axesclip" id="clip4837f7xy"><rect x="100" y="120" width="964" height="460"/></clipPath></g><g class="gradients"/><g class="patterns"/></defs><g class="bglayer"/><g class="layer-below"><g class="imagelayer"/><g class="shapelayer"/></g><g class="cartesianlayer"><g class="subplot xy"><g class="layer-subplot"><g class="shapelayer"/><g class="imagelayer"/></g><g class="minor-gridlayer"><g class="x"/><g class="y"/></g><g class="gridlayer"><g class="x"><path class="xgrid crisp" transform="translate(153.2,0)" d="M0,120v460" style="stroke: rgb(167, 175, 191); stroke-opacity: 0.16; stroke-width: 1px;"/><path class="xgrid crisp" transform="translate(260.4,0)" d="M0,120v460" style="stroke: rgb(167, 175, 191); stroke-opacity: 0.16; stroke-width: 1px;"/><path class="xgrid crisp" transform="translate(367.6,0)" d="M0,120v460" style="stroke: rgb(167, 175, 191); stroke-opacity: 0.16; stroke-width: 1px;"/><path class="xgrid crisp" transform="translate(474.8,0)" d="M0,120v460" style="stroke: rgb(167, 175, 191); stroke-opacity: 0.16; stroke-width: 1px;"/><path class="xgrid crisp" transform="translate(582,0)" d="M0,120v460" style="stroke: rgb(167, 175, 191); stroke-opacity: 0.16; stroke-width: 1px;"/><path class="xgrid crisp" transform="translate(689.2,0)" d="M0,120v460" style="stroke: rgb(167, 175, 191); stroke-opacity: 0.16; stroke-width: 1px;"/><path class="xgrid crisp" transform="translate(796.4,0)" d="M0,120v460" style="stroke: rgb(167, 175, 191); stroke-opacity: 0.16; stroke-width: 1px;"/><path class="xgrid crisp" transform="translate(903.6,0)" d="M0,120v460" style="stroke: rgb(167, 175, 191); stroke-opacity: 0.16; stroke-width: 1px;"/><path class="xgrid crisp" transform="translate(1010.8,0)" d="M0,120v460" style="stroke: rgb(167, 175, 191); stroke-opacity: 0.16; stroke-width: 1px;"/></g><g class="y"><path class="ygrid crisp" transform="translate(0,484.17)" d="M100,0h964" style="stroke: rgb(167, 175, 191); stroke-opacity: 0.16; stroke-width: 1px;"/><path class="ygrid crisp" transform="translate(0,388.33)" d="M100,0h964" style="stroke: rgb(167, 175, 191); stroke-opacity: 0.16; stroke-width: 1px;"/><path class="ygrid crisp" transform="translate(0,292.5)" d="M100,0h964" style="stroke: rgb(167, 175, 191); stroke-opacity: 0.16; stroke-width: 1px;"/><path class="ygrid crisp" transform="translate(0,196.67000000000002)" d="M100,0h964" style="stroke: rgb(167, 175, 191); stroke-opacity: 0.16; stroke-width: 1px;"/></g></g><g class="zerolinelayer"/><g class="layer-between"><g class="shapelayer"/><g class="imagelayer"/></g><path class="xlines-below"/><path class="ylines-below"/><g class="overlines-below"/><g class="xaxislayer-below"/><g class="yaxislayer-below"/><g class="overaxes-below"/><g class="overplot"><g class="xy" transform="translate(100,120)" clip-path="url(#clip4837f7xyplot)"><g class="scatterlayer mlayer"><g class="trace scatter trace6b0d77" style="stroke-miterlimit: 2; opacity: 1;"><g class="fills"/><g class="errorbars"><g class="errorbar"><path class="yerror" d="M49.2,438.14h8m-4,0V438.24m-4,0h8" style="vector-effect: none; stroke-width: 1.5px; stroke: rgb(167, 175, 191); stroke-opacity: 1;"/></g><g class="errorbar"><path class="yerror" d="M156.4,418.1h8m-4,0V418.2m-4,0h8" style="vector-effect: none; stroke-width: 1.5px; stroke: rgb(167, 175, 191); stroke-opacity: 1;"/></g><g class="errorbar"><path class="yerror" d="M263.6,379.29h8m-4,0V379.79m-4,0h8" style="vector-effect: none; stroke-width: 1.5px; stroke: rgb(167, 175, 191); stroke-opacity: 1;"/></g><g class="errorbar"><path class="yerror" d="M370.8,310.14h8m-4,0V317.05m-4,0h8" style="vector-effect: none; stroke-width: 1.5px; stroke: rgb(167, 175, 191); stroke-opacity: 1;"/></g><g class="errorbar"><path class="yerror" d="M478,197.86h8m-4,0V201.66m-4,0h8" style="vector-effect: none; stroke-width: 1.5px; stroke: rgb(167, 175, 191); stroke-opacity: 1;"/></g><g class="errorbar"><path class="yerror" d="M585.2,193.12h8m-4,0V196.14m-4,0h8" style="vector-effect: none; stroke-width: 1.5px; stroke: rgb(167, 175, 191); stroke-opacity: 1;"/></g><g class="errorbar"><path class="yerror" d="M692.4,181.62h8m-4,0V186.6m-4,0h8" style="vector-effect: none; stroke-width: 1.5px; stroke: rgb(167, 175, 191); stroke-opacity: 1;"/></g><g class="errorbar"><path class="yerror" d="M799.6,157.95h8m-4,0V162.84m-4,0h8" style="vector-effect: none; stroke-width: 1.5px; stroke: rgb(167, 175, 191); stroke-opacity: 1;"/></g><g class="errorbar"><path class="yerror" d="M906.8,154.65h8m-4,0V157.55m-4,0h8" style="vector-effect: none; stroke-width: 1.5px; stroke: rgb(167, 175, 191); stroke-opacity: 1;"/></g></g><g class="lines"><path class="js-line" d="M53.2,438.17L160.4,418.17L267.6,379.41L374.8,315.51L482,198.4L589.2,195.73L696.4,184.01L803.6,159.37L910.8,155.11" style="vector-effect: none; fill: none; stroke: rgb(167, 175, 191); stroke-opacity: 1; stroke-width: 3px; opacity: 1;"/></g><g class="points"><path class="point plotly-customdata" transform="translate(53.2,438.17)" d="M4,0A4,4 0 1,1 0,-4A4,4 0 0,1 4,0Z" style="opacity: 1; stroke-width: 0px; fill: rgb(167, 175, 191); fill-opacity: 1;"/><path class="point plotly-customdata" transform="translate(160.4,418.17)" d="M4,0A4,4 0 1,1 0,-4A4,4 0 0,1 4,0Z" style="opacity: 1; stroke-width: 0px; fill: rgb(167, 175, 191); fill-opacity: 1;"/><path class="point plotly-customdata" transform="translate(267.6,379.41)" d="M4,0A4,4 0 1,1 0,-4A4,4 0 0,1 4,0Z" style="opacity: 1; stroke-width: 0px; fill: rgb(167, 175, 191); fill-opacity: 1;"/><path class="point plotly-customdata" transform="translate(374.8,315.51)" d="M4,0A4,4 0 1,1 0,-4A4,4 0 0,1 4,0Z" style="opacity: 1; stroke-width: 0px; fill: rgb(167, 175, 191); fill-opacity: 1;"/><path class="point plotly-customdata" transform="translate(482,198.4)" d="M4,0A4,4 0 1,1 0,-4A4,4 0 0,1 4,0Z" style="opacity: 1; stroke-width: 0px; fill: rgb(167, 175, 191); fill-opacity: 1;"/><path class="point plotly-customdata" transform="translate(589.2,195.73)" d="M4,0A4,4 0 1,1 0,-4A4,4 0 0,1 4,0Z" style="opacity: 1; stroke-width: 0px; fill: rgb(167, 175, 191); fill-opacity: 1;"/><path class="point plotly-customdata" transform="translate(696.4,184.01)" d="M4,0A4,4 0 1,1 0,-4A4,4 0 0,1 4,0Z" style="opacity: 1; stroke-width: 0px; fill: rgb(167, 175, 191); fill-opacity: 1;"/><path class="point plotly-customdata" transform="translate(803.6,159.37)" d="M4,0A4,4 0 1,1 0,-4A4,4 0 0,1 4,0Z" style="opacity: 1; stroke-width: 0px; fill: rgb(167, 175, 191); fill-opacity: 1;"/><path class="point plotly-customdata" transform="translate(910.8,155.11)" d="M4,0A4,4 0 1,1 0,-4A4,4 0 0,1 4,0Z" style="opacity: 1; stroke-width: 0px; fill: rgb(167, 175, 191); fill-opacity: 1;"/></g><g class="text"/></g><g class="trace scatter trace38a144" style="stroke-miterlimit: 2; opacity: 1;"><g class="fills"/><g class="errorbars"><g class="errorbar"><path class="yerror" d="M49.2,437.56h8m-4,0V438.89m-4,0h8" style="vector-effect: none; stroke-width: 1.5px; stroke: rgb(250, 80, 15); stroke-opacity: 1;"/></g><g class="errorbar"><path class="yerror" d="M156.4,416.24h8m-4,0V420.35m-4,0h8" style="vector-effect: none; stroke-width: 1.5px; stroke: rgb(250, 80, 15); stroke-opacity: 1;"/></g><g class="errorbar"><path class="yerror" d="M263.6,375.79h8m-4,0V382.62m-4,0h8" style="vector-effect: none; stroke-width: 1.5px; stroke: rgb(250, 80, 15); stroke-opacity: 1;"/></g><g class="errorbar"><path class="yerror" d="M370.8,310.79h8m-4,0V317.11m-4,0h8" style="vector-effect: none; stroke-width: 1.5px; stroke: rgb(250, 80, 15); stroke-opacity: 1;"/></g><g class="errorbar"><path class="yerror" d="M478,191.94h8m-4,0V208.97m-4,0h8" style="vector-effect: none; stroke-width: 1.5px; stroke: rgb(250, 80, 15); stroke-opacity: 1;"/></g><g class="errorbar"><path class="yerror" d="M585.2,183.77h8m-4,0V196.26m-4,0h8" style="vector-effect: none; stroke-width: 1.5px; stroke: rgb(250, 80, 15); stroke-opacity: 1;"/></g><g class="errorbar"><path class="yerror" d="M692.4,181.97h8m-4,0V196.36m-4,0h8" style="vector-effect: none; stroke-width: 1.5px; stroke: rgb(250, 80, 15); stroke-opacity: 1;"/></g><g class="errorbar"><path class="yerror" d="M799.6,152.88h8m-4,0V169.64m-4,0h8" style="vector-effect: none; stroke-width: 1.5px; stroke: rgb(250, 80, 15); stroke-opacity: 1;"/></g><g class="errorbar"><path class="yerror" d="M906.8,150.63h8m-4,0V167.57m-4,0h8" style="vector-effect: none; stroke-width: 1.5px; stroke: rgb(250, 80, 15); stroke-opacity: 1;"/></g></g><g class="lines"><path class="js-line" d="M53.2,438.17L160.4,418.13L267.6,380.7L374.8,312.94L482,199.59L589.2,190.16L696.4,186.43L803.6,158.22L910.8,155.93" style="vector-effect: none; fill: none; stroke: rgb(250, 80, 15); stroke-opacity: 1; stroke-width: 3px; opacity: 1;"/></g><g class="points"><path class="point plotly-customdata" transform="translate(53.2,438.17)" d="M4,0A4,4 0 1,1 0,-4A4,4 0 0,1 4,0Z" style="opacity: 1; stroke-width: 0px; fill: rgb(250, 80, 15); fill-opacity: 1;"/><path class="point plotly-customdata" transform="translate(160.4,418.13)" d="M4,0A4,4 0 1,1 0,-4A4,4 0 0,1 4,0Z" style="opacity: 1; stroke-width: 0px; fill: rgb(250, 80, 15); fill-opacity: 1;"/><path class="point plotly-customdata" transform="translate(267.6,380.7)" d="M4,0A4,4 0 1,1 0,-4A4,4 0 0,1 4,0Z" style="opacity: 1; stroke-width: 0px; fill: rgb(250, 80, 15); fill-opacity: 1;"/><path class="point plotly-customdata" transform="translate(374.8,312.94)" d="M4,0A4,4 0 1,1 0,-4A4,4 0 0,1 4,0Z" style="opacity: 1; stroke-width: 0px; fill: rgb(250, 80, 15); fill-opacity: 1;"/><path class="point plotly-customdata" transform="translate(482,199.59)" d="M4,0A4,4 0 1,1 0,-4A4,4 0 0,1 4,0Z" style="opacity: 1; stroke-width: 0px; fill: rgb(250, 80, 15); fill-opacity: 1;"/><path class="point plotly-customdata" transform="translate(589.2,190.16)" d="M4,0A4,4 0 1,1 0,-4A4,4 0 0,1 4,0Z" style="opacity: 1; stroke-width: 0px; fill: rgb(250, 80, 15); fill-opacity: 1;"/><path class="point plotly-customdata" transform="translate(696.4,186.43)" d="M4,0A4,4 0 1,1 0,-4A4,4 0 0,1 4,0Z" style="opacity: 1; stroke-width: 0px; fill: rgb(250, 80, 15); fill-opacity: 1;"/><path class="point plotly-customdata" transform="translate(803.6,158.22)" d="M4,0A4,4 0 1,1 0,-4A4,4 0 0,1 4,0Z" style="opacity: 1; stroke-width: 0px; fill: rgb(250, 80, 15); fill-opacity: 1;"/><path class="point plotly-customdata" transform="translate(910.8,155.93)" d="M4,0A4,4 0 1,1 0,-4A4,4 0 0,1 4,0Z" style="opacity: 1; stroke-width: 0px; fill: rgb(250, 80, 15); fill-opacity: 1;"/></g><g class="text"/></g><g class="trace scatter tracec1b5fa" style="stroke-miterlimit: 2; opacity: 1;"><g class="fills"/><g class="errorbars"/><g class="lines"/><g class="points"/><g class="text"/></g><g class="trace scatter traced84408" style="stroke-miterlimit: 2; opacity: 1;"><g class="fills"/><g class="errorbars"/><g class="lines"/><g class="points"/><g class="text"/></g></g></g></g><g class="zerolinelayer-above"/><path class="xlines-above crisp" d="M0,0" style="fill: none;"/><path class="ylines-above crisp" d="M0,0" style="fill: none;"/><g class="overlines-above"/><g class="xaxislayer-above"><g class="xtick"><text text-anchor="middle" x="0" y="597" transform="translate(153.2,0)" style="font-family: Arial, sans-serif; font-size: 16px; fill: rgb(244, 244, 245); fill-opacity: 1; white-space: pre;">1</text></g><g class="xtick"><text text-anchor="middle" x="0" y="597" style="font-family: Arial, sans-serif; font-size: 16px; fill: rgb(244, 244, 245); fill-opacity: 1; white-space: pre;" transform="translate(260.4,0)">2</text></g><g class="xtick"><text text-anchor="middle" x="0" y="597" style="font-family: Arial, sans-serif; font-size: 16px; fill: rgb(244, 244, 245); fill-opacity: 1; white-space: pre;" transform="translate(367.6,0)">4</text></g><g class="xtick"><text text-anchor="middle" x="0" y="597" style="font-family: Arial, sans-serif; font-size: 16px; fill: rgb(244, 244, 245); fill-opacity: 1; white-space: pre;" transform="translate(474.8,0)">8</text></g><g class="xtick"><text text-anchor="middle" x="0" y="597" style="font-family: Arial, sans-serif; font-size: 16px; fill: rgb(244, 244, 245); fill-opacity: 1; white-space: pre;" transform="translate(582,0)">16</text></g><g class="xtick"><text text-anchor="middle" x="0" y="597" style="font-family: Arial, sans-serif; font-size: 16px; fill: rgb(244, 244, 245); fill-opacity: 1; white-space: pre;" transform="translate(689.2,0)">32</text></g><g class="xtick"><text text-anchor="middle" x="0" y="597" style="font-family: Arial, sans-serif; font-size: 16px; fill: rgb(244, 244, 245); fill-opacity: 1; white-space: pre;" transform="translate(796.4,0)">64</text></g><g class="xtick"><text text-anchor="middle" x="0" y="597" style="font-family: Arial, sans-serif; font-size: 16px; fill: rgb(244, 244, 245); fill-opacity: 1; white-space: pre;" transform="translate(903.6,0)">128</text></g><g class="xtick"><text text-anchor="middle" x="0" y="597" style="font-family: Arial, sans-serif; font-size: 16px; fill: rgb(244, 244, 245); fill-opacity: 1; white-space: pre;" transform="translate(1010.8,0)">256</text></g></g><g class="yaxislayer-above"><g class="ytick"><text text-anchor="end" x="99" y="5.6" transform="translate(0,580)" style="font-family: Arial, sans-serif; font-size: 16px; fill: rgb(244, 244, 245); fill-opacity: 1; white-space: pre;">0</text></g><g class="ytick"><text text-anchor="end" x="99" y="5.6" style="font-family: Arial, sans-serif; font-size: 16px; fill: rgb(244, 244, 245); fill-opacity: 1; white-space: pre;" transform="translate(0,484.17)">500</text></g><g class="ytick"><text text-anchor="end" x="99" y="5.6" style="font-family: Arial, sans-serif; font-size: 16px; fill: rgb(244, 244, 245); fill-opacity: 1; white-space: pre;" transform="translate(0,388.33)">1000</text></g><g class="ytick"><text text-anchor="end" x="99" y="5.6" style="font-family: Arial, sans-serif; font-size: 16px; fill: rgb(244, 244, 245); fill-opacity: 1; white-space: pre;" transform="translate(0,292.5)">1500</text></g><g class="ytick"><text text-anchor="end" x="99" y="5.6" style="font-family: Arial, sans-serif; font-size: 16px; fill: rgb(244, 244, 245); fill-opacity: 1; white-space: pre;" transform="translate(0,196.67000000000002)">2000</text></g></g><g class="overaxes-above"/></g></g><g class="polarlayer"/><g class="smithlayer"/><g class="ternarylayer"/><g class="geolayer"/><g class="funnelarealayer"/><g class="pielayer"/><g class="iciclelayer"/><g class="treemaplayer"/><g class="sunburstlayer"/><g class="glimages"/><defs id="topdefs-4837f7"><g class="clips"/><clipPath id="legend4837f7"><rect width="299" height="34" x="0" y="0"/></clipPath></defs><g class="layer-above"><g class="imagelayer"/><g class="shapelayer"/></g><g class="infolayer"><g class="legend" pointer-events="all" transform="translate(765,64.79999999999995)"><rect class="bg" shape-rendering="crispEdges" style="stroke: rgb(68, 68, 68); stroke-opacity: 1; fill: rgb(2, 6, 23); fill-opacity: 1; stroke-width: 0px;" width="299" height="34" x="0" y="0"/><g class="scrollbox" transform="" clip-path="url(#legend4837f7)"><g class="groups"><g class="traces" transform="translate(0,16.9)" style="opacity: 1;"><text class="legendtext" text-anchor="start" x="40" y="6.24" style="font-family: Arial, sans-serif; font-size: 16px; fill: rgb(244, 244, 245); fill-opacity: 1; white-space: pre;">Unwatermarked</text><g class="layers" style="opacity: 1;"><g class="legendfill"/><g class="legendlines"><path class="js-line" d="M5,0h30" style="fill: none; stroke: rgb(167, 175, 191); stroke-opacity: 1; stroke-width: 3px;"/></g><g class="legendsymbols"><g class="legendpoints"/></g></g><rect class="legendtoggle" x="0" y="-11.9" width="155.4375" height="23.8" style="fill: rgb(0, 0, 0); fill-opacity: 0;"/></g><g class="traces" transform="translate(157.9375,16.9)" style="opacity: 1;"><text class="legendtext" text-anchor="start" x="40" y="6.24" style="font-family: Arial, sans-serif; font-size: 16px; fill: rgb(244, 244, 245); fill-opacity: 1; white-space: pre;">Watermarked</text><g class="layers" style="opacity: 1;"><g class="legendfill"/><g class="legendlines"><path class="js-line" d="M5,0h30" style="fill: none; stroke: rgb(250, 80, 15); stroke-opacity: 1; stroke-width: 3px;"/></g><g class="legendsymbols"><g class="legendpoints"/></g></g><rect class="legendtoggle" x="0" y="-11.9" width="137.9375" height="23.8" style="fill: rgb(0, 0, 0); fill-opacity: 0;"/></g></g></g><rect class="scrollbar" rx="20" ry="3" width="0" height="0" style="fill: rgb(128, 139, 164); fill-opacity: 1;" x="0" y="0"/></g><g class="g-gtitle"><text class="gtitle" x="22" y="60" text-anchor="start" dy="0em" style="opacity: 1; font-family: Arial, sans-serif; font-size: 28px; fill: rgb(244, 244, 245); fill-opacity: 1; white-space: pre;"><tspan class="line" dy="0em" x="22" y="60">Decode throughput with watermarking</tspan><tspan class="line" dy="1.3em" x="22" y="60"><tspan style="font-size:16px; fill:#A7AFBF">Qwen3.5-27B · MTP-3 · 512 output tokens</tspan></tspan></text></g><g class="g-xtitle"><text class="xtitle" x="582" y="627.8" text-anchor="middle" style="opacity: 1; font-family: Arial, sans-serif; font-size: 19px; fill: rgb(244, 244, 245); fill-opacity: 1; white-space: pre;">Batch size</text></g><g class="g-ytitle"><text class="ytitle" transform="rotate(-90,42.25625,350)" x="42.25625" y="350" text-anchor="middle" style="opacity: 1; font-family: Arial, sans-serif; font-size: 19px; fill: rgb(244, 244, 245); fill-opacity: 1; white-space: pre;">Output throughput (tokens/s)</text></g></g></svg>