<svg xmlns="http://www.w3.org/2000/svg" width="1280" height="480" viewBox="0 0 1280 480" role="img">
<title>Mean audio RTF across optimization configs</title>
<defs><style>
.title{font:700 24px system-ui,-apple-system,Segoe UI,sans-serif;fill:#111827}
.panel{fill:#fbf6ef;stroke:#eee1d2}
.axis{stroke:#c9c1b6;stroke-width:1.4}
.grid{stroke:#e7ded2;stroke-width:1}
.tick{font:500 11px system-ui,-apple-system,Segoe UI,sans-serif;fill:#64748b}
.xtick{font:500 11px system-ui,-apple-system,Segoe UI,sans-serif;fill:#475569}
.legend{font:600 11px system-ui,-apple-system,Segoe UI,sans-serif;fill:#334155}
.val{font:600 9px system-ui,-apple-system,Segoe UI,sans-serif;fill:#334155}
.val-halo{font:600 9px system-ui,-apple-system,Segoe UI,sans-serif;fill:#fbf6ef;stroke:#fbf6ef;stroke-width:3;stroke-linejoin:round}
.val-c1{fill:#b45309}
.val-c8{fill:#1d4ed8}
.val-c16{fill:#6d28d9}
.val-c32{fill:#15803d}
.val-c64{fill:#b91c1c}
.val-c128{fill:#0e7490}
.leader{fill:none;stroke-width:1.1;opacity:.55}
.line{fill:none;stroke-width:3}
</style></defs>
<clipPath id="plot"><rect x="105.0" y="110.0" width="1075.0" height="285.0"/></clipPath>
<rect x="20" y="15" width="1240" height="450" rx="20" class="panel"/>
<text x="50" y="58" class="title">Mean audio RTF across optimization configs</text>
<line x1="680" y1="78" x2="704" y2="78" class="line" stroke="#e39a4a"/>
<text x="710" y="82" class="legend">c=1</text>
<line x1="797" y1="78" x2="821" y2="78" class="line" stroke="#7c3aed"/>
<text x="827" y="82" class="legend">c=16</text>
<line x1="914" y1="78" x2="938" y2="78" class="line" stroke="#56b879"/>
<text x="944" y="82" class="legend">c=32</text>
<line x1="1031" y1="78" x2="1055" y2="78" class="line" stroke="#dc2626"/>
<text x="1061" y="82" class="legend">c=64</text>
<line x1="105.0" y1="395.0" x2="1180" y2="395.0" class="axis"/>
<line x1="105.0" y1="110.0" x2="105.0" y2="395.0" class="axis"/>
<g clip-path="url(#plot)">
<line x1="105.0" y1="395.0" x2="1180" y2="395.0" class="grid"/>
<line x1="105.0" y1="323.8" x2="1180" y2="323.8" class="grid"/>
<line x1="105.0" y1="252.5" x2="1180" y2="252.5" class="grid"/>
<line x1="105.0" y1="181.2" x2="1180" y2="181.2" class="grid"/>
<line x1="105.0" y1="110.0" x2="1180" y2="110.0" class="grid"/>
</g>
<text x="98.0" y="399.0" text-anchor="end" class="tick">0 rtf</text>
<text x="98.0" y="327.8" text-anchor="end" class="tick">0.33 rtf</text>
<text x="98.0" y="256.5" text-anchor="end" class="tick">0.66 rtf</text>
<text x="98.0" y="185.2" text-anchor="end" class="tick">1 rtf</text>
<text x="98.0" y="114.0" text-anchor="end" class="tick">1.3 rtf</text>
<g clip-path="url(#plot)">
<polyline class="line" stroke="#e39a4a" points="105.0,218.0 373.8,354.6 642.5,361.7 911.2,365.8 1180.0,366.6"/>
<polyline class="line" stroke="#7c3aed" points="105.0,195.5 373.8,337.1 642.5,331.8 911.2,344.8 1180.0,346.0"/>
<polyline class="line" stroke="#56b879" points="105.0,181.9 373.8,312.4 642.5,310.6 911.2,328.4 1180.0,328.2"/>
<polyline class="line" stroke="#dc2626" points="105.0,147.2 373.8,268.5 642.5,259.8 911.2,293.8 1180.0,294.1"/>
</g>
<circle cx="105.0" cy="218.0" r="4.5" fill="#f6c28b" stroke="#e39a4a" stroke-width="2"/>
<text x="115.0" y="221.20082495774912" text-anchor="start" class="val-halo">0.82</text>
<text x="115.0" y="221.20082495774912" text-anchor="start" class="val">0.82</text>
<circle cx="373.8" cy="354.6" r="4.5" fill="#f6c28b" stroke="#e39a4a" stroke-width="2"/>
<text x="383.75" y="357.7843880872943" text-anchor="start" class="val-halo">0.19</text>
<text x="383.75" y="357.7843880872943" text-anchor="start" class="val">0.19</text>
<circle cx="642.5" cy="361.7" r="4.5" fill="#f6c28b" stroke="#e39a4a" stroke-width="2"/>
<text x="652.5" y="364.91735357383214" text-anchor="start" class="val-halo">0.16</text>
<text x="652.5" y="364.91735357383214" text-anchor="start" class="val">0.16</text>
<circle cx="911.2" cy="365.8" r="4.5" fill="#f6c28b" stroke="#e39a4a" stroke-width="2"/>
<text x="921.25" y="369.02111507618815" text-anchor="start" class="val-halo">0.14</text>
<text x="921.25" y="369.02111507618815" text-anchor="start" class="val">0.14</text>
<circle cx="1180.0" cy="366.6" r="4.5" fill="#f6c28b" stroke="#e39a4a" stroke-width="2"/>
<text x="1170.0" y="369.8226099665045" text-anchor="end" class="val-halo">0.13</text>
<text x="1170.0" y="369.8226099665045" text-anchor="end" class="val">0.13</text>
<circle cx="105.0" cy="195.5" r="4.5" fill="#c4b5fd" stroke="#7c3aed" stroke-width="2"/>
<text x="115.0" y="198.73516115239698" text-anchor="start" class="val-halo">0.93</text>
<text x="115.0" y="198.73516115239698" text-anchor="start" class="val">0.93</text>
<circle cx="373.8" cy="337.1" r="4.5" fill="#c4b5fd" stroke="#7c3aed" stroke-width="2"/>
<text x="383.75" y="340.3020546772623" text-anchor="start" class="val-halo">0.27</text>
<text x="383.75" y="340.3020546772623" text-anchor="start" class="val">0.27</text>
<circle cx="642.5" cy="331.8" r="4.5" fill="#c4b5fd" stroke="#7c3aed" stroke-width="2"/>
<text x="652.5" y="335.0039624028684" text-anchor="start" class="val-halo">0.29</text>
<text x="652.5" y="335.0039624028684" text-anchor="start" class="val">0.29</text>
<circle cx="911.2" cy="344.8" r="4.5" fill="#c4b5fd" stroke="#7c3aed" stroke-width="2"/>
<text x="921.25" y="348.04738008725104" text-anchor="start" class="val-halo">0.23</text>
<text x="921.25" y="348.04738008725104" text-anchor="start" class="val">0.23</text>
<circle cx="1180.0" cy="346.0" r="4.5" fill="#c4b5fd" stroke="#7c3aed" stroke-width="2"/>
<text x="1170.0" y="349.2479749188428" text-anchor="end" class="val-halo">0.23</text>
<text x="1170.0" y="349.2479749188428" text-anchor="end" class="val">0.23</text>
<circle cx="105.0" cy="181.9" r="4.5" fill="#bfe7c7" stroke="#56b879" stroke-width="2"/>
<text x="115.0" y="185.07613345597366" text-anchor="start" class="val-halo">0.99</text>
<text x="115.0" y="185.07613345597366" text-anchor="start" class="val">0.99</text>
<circle cx="373.8" cy="312.4" r="4.5" fill="#bfe7c7" stroke="#56b879" stroke-width="2"/>
<text x="383.75" y="315.5910169693103" text-anchor="start" class="val-halo">0.38</text>
<text x="383.75" y="315.5910169693103" text-anchor="start" class="val">0.38</text>
<circle cx="642.5" cy="310.6" r="4.5" fill="#bfe7c7" stroke="#56b879" stroke-width="2"/>
<text x="652.5" y="313.76836142720026" text-anchor="start" class="val-halo">0.39</text>
<text x="652.5" y="313.76836142720026" text-anchor="start" class="val">0.39</text>
<circle cx="911.2" cy="328.4" r="4.5" fill="#bfe7c7" stroke="#56b879" stroke-width="2"/>
<text x="921.25" y="331.62457391031165" text-anchor="start" class="val-halo">0.31</text>
<text x="921.25" y="331.62457391031165" text-anchor="start" class="val">0.31</text>
<circle cx="1180.0" cy="328.2" r="4.5" fill="#bfe7c7" stroke="#56b879" stroke-width="2"/>
<text x="1170.0" y="331.411423058881" text-anchor="end" class="val-halo">0.31</text>
<text x="1170.0" y="331.411423058881" text-anchor="end" class="val">0.31</text>
<circle cx="105.0" cy="147.2" r="4.5" fill="#fca5a5" stroke="#dc2626" stroke-width="2"/>
<text x="115.0" y="150.3739130434782" text-anchor="start" class="val-halo">1.15</text>
<text x="115.0" y="150.3739130434782" text-anchor="start" class="val">1.15</text>
<circle cx="373.8" cy="268.5" r="4.5" fill="#fca5a5" stroke="#dc2626" stroke-width="2"/>
<text x="383.75" y="271.7002552822216" text-anchor="start" class="val-halo">0.59</text>
<text x="383.75" y="271.7002552822216" text-anchor="start" class="val">0.59</text>
<circle cx="642.5" cy="259.8" r="4.5" fill="#fca5a5" stroke="#dc2626" stroke-width="2"/>
<text x="652.5" y="263.01298968098064" text-anchor="start" class="val-halo">0.63</text>
<text x="652.5" y="263.01298968098064" text-anchor="start" class="val">0.63</text>
<circle cx="911.2" cy="293.8" r="4.5" fill="#fca5a5" stroke="#dc2626" stroke-width="2"/>
<text x="921.25" y="297.0317673325257" text-anchor="start" class="val-halo">0.47</text>
<text x="921.25" y="297.0317673325257" text-anchor="start" class="val">0.47</text>
<circle cx="1180.0" cy="294.1" r="4.5" fill="#fca5a5" stroke="#dc2626" stroke-width="2"/>
<text x="1170.0" y="297.3444063411036" text-anchor="end" class="val-halo">0.47</text>
<text x="1170.0" y="297.3444063411036" text-anchor="end" class="val">0.47</text>
<text x="105.0" y="418" text-anchor="middle" class="xtick">Batch</text>
<text x="373.8" y="418" text-anchor="middle" class="xtick">CUDA</text>
<text x="373.8" y="432" text-anchor="middle" class="xtick">Graph</text>
<text x="642.5" y="418" text-anchor="middle" class="xtick">Async</text>
<text x="642.5" y="432" text-anchor="middle" class="xtick">chunk</text>
<text x="911.2" y="418" text-anchor="middle" class="xtick">Async</text>
<text x="911.2" y="432" text-anchor="middle" class="xtick">output</text>
<text x="1180.0" y="418" text-anchor="middle" class="xtick">Replicas</text>
</svg>
