<svg xmlns="http://www.w3.org/2000/svg" width="556" height="500" viewBox="162 46 556 500" font-family="'Inter','Helvetica Neue',Arial,sans-serif">
  <defs>
    <marker id="arr" viewBox="0 0 10 10" refX="9" refY="5" markerWidth="7" markerHeight="7" orient="auto-start-reverse">
      <path d="M0,0 L10,5 L0,10 z" fill="#475569"/>
    </marker>
    <marker id="arrR" viewBox="0 0 10 10" refX="9" refY="5" markerWidth="7" markerHeight="7" orient="auto-start-reverse">
      <path d="M0,0 L10,5 L0,10 z" fill="#94A3B8"/>
    </marker>
    <style>
      .hdr {font-size:15px;font-weight:700}
      .sub {font-size:12px}
      .lbl {font-size:12px;font-weight:600}
      .mono{font-size:11px;font-family:'SF Mono',Menlo,Consolas,monospace}
      .tag {font-size:9.5px;font-weight:700}
      .cap {font-size:12px;fill:#475569}
      .edge{stroke:#475569;stroke-width:2;fill:none}
    </style>
  </defs>

  <!-- ===== L1 · Scheduler (reused) ===== -->
  <rect x="190" y="64" width="420" height="60" rx="11" fill="#E2E8F0" stroke="#94A3B8" stroke-width="1.5"/>
  <text x="400" y="90" text-anchor="middle" class="hdr" fill="#334155">vLLM scheduler · speculative-decoding path</text>
  <text x="400" y="110" text-anchor="middle" class="sub" fill="#475569">treats the canvas as draft tokens</text>

  <!-- ===== L2 · ModelRunner (reused) ===== -->
  <rect x="190" y="152" width="420" height="60" rx="11" fill="#E2E8F0" stroke="#94A3B8" stroke-width="1.5"/>
  <text x="400" y="178" text-anchor="middle" class="hdr" fill="#334155">GPU model runner (generic)</text>
  <text x="400" y="198" text-anchor="middle" class="sub" fill="#475569">calls the ModelState hooks every step</text>

  <!-- ===== L3 · ModelState (new) ===== -->
  <rect x="190" y="240" width="420" height="86" rx="11" fill="#F3E8FF" stroke="#9333EA" stroke-width="2"/>
  <rect x="540" y="248" width="44" height="17" rx="8.5" fill="#9333EA"/>
  <text x="562" y="260" text-anchor="middle" class="tag" fill="#fff">NEW</text>
  <text x="400" y="270" text-anchor="middle" class="hdr" fill="#6b21a8">DiffusionGemmaModelState</text>
  <text x="400" y="294" text-anchor="middle" class="mono" fill="#7e22ce">prepare_attn · prepare_inputs · custom_sampler</text>
  <text x="400" y="312" text-anchor="middle" class="sub" fill="#7e22ce">per-request causal · embed canvas + self-conditioning</text>

  <!-- ===== L4 · Gemma4 forward (reused) ===== -->
  <rect x="190" y="354" width="420" height="60" rx="11" fill="#E2E8F0" stroke="#94A3B8" stroke-width="1.5"/>
  <text x="400" y="389" text-anchor="middle" class="hdr" fill="#334155">Gemma4 backbone forward</text>

  <!-- ===== L5 · DiffusionSampler (new) ===== -->
  <rect x="190" y="442" width="420" height="64" rx="11" fill="#F3E8FF" stroke="#9333EA" stroke-width="2"/>
  <rect x="540" y="450" width="44" height="17" rx="8.5" fill="#9333EA"/>
  <text x="562" y="462" text-anchor="middle" class="tag" fill="#fff">NEW</text>
  <text x="400" y="472" text-anchor="middle" class="hdr" fill="#6b21a8">DiffusionSampler</text>
  <text x="400" y="492" text-anchor="middle" class="sub" fill="#7e22ce">replaces Sampler + RejectionSampler</text>

  <!-- down arrows -->
  <path class="edge" d="M280,124 V150" marker-end="url(#arr)"/>
  <text x="294" y="141" class="sub" fill="#64748b">draft_tokens = canvas</text>
  <path class="edge" d="M280,212 V238" marker-end="url(#arr)"/>
  <text x="294" y="229" class="sub" fill="#64748b">hooks</text>
  <path class="edge" d="M280,326 V352" marker-end="url(#arr)"/>
  <text x="294" y="343" class="sub" fill="#64748b">inputs_embeds · per-request causal</text>
  <path class="edge" d="M280,414 V440" marker-end="url(#arr)"/>
  <text x="294" y="431" class="sub" fill="#64748b">logits</text>

  <!-- return: sampler → scheduler (the spec-decode contract) -->
  <path d="M610,474 H668 V94 H612" fill="none" stroke="#94A3B8" stroke-width="2" marker-end="url(#arrR)"/>
  <text x="686" y="284" text-anchor="middle" class="lbl" fill="#64748b" transform="rotate(-90 686 284)">SamplerOutput · num_sampled / num_rejected</text>

  <!-- legend -->
  <rect x="190" y="524" width="15" height="12" rx="2" fill="#E2E8F0" stroke="#94A3B8" stroke-width="1.2"/>
  <text x="212" y="534" class="sub" fill="#475569">reused vLLM infrastructure (unchanged)</text>
  <rect x="470" y="524" width="15" height="12" rx="2" fill="#F3E8FF" stroke="#9333EA" stroke-width="1.2"/>
  <text x="492" y="534" class="sub" fill="#475569">added for diffusion</text>
</svg>
